<svg xmlns="http://www.w3.org/2000/svg" viewBox="0 0 232.66 110.51"><defs><style>.a{fill:#00a6ca;}</style></defs><title>TU_HongKong-Logo_RGB</title><path class="a" d="M44.6,48.23a7.25,7.25,0,0,0-4.5-1.37,8.43,8.43,0,0,0-1.81.2,6.82,6.82,0,0,0-1.68.61,5.75,5.75,0,0,0-1.38,1,3.74,3.74,0,0,0-.89,1.42,3.19,3.19,0,0,0-.67-1.88,3.42,3.42,0,0,0-1.46-1,5.66,5.66,0,0,0-1.94-.32,10,10,0,0,0-2.17.24l0,3a3.58,3.58,0,0,1,1.21.1,1.06,1.06,0,0,1,.63.47,2,2,0,0,1,.22.81c0,0.33,0,.7,0,1.14V66.75h4.38V55.49a4.8,4.8,0,0,1,.4-2A4,4,0,0,1,36.13,52a4.63,4.63,0,0,1,1.6-.85,6.33,6.33,0,0,1,1.89-.28,6.92,6.92,0,0,1,3.15.75h0Z" transform="translate(-9.18 -6.59)"/><path class="a" d="M64,63.63a1.15,1.15,0,0,1-.63-0.52,2,2,0,0,1-.22-0.89c0-.35,0-0.75,0-1.21V48.64a22.53,22.53,0,0,0-3.93-1.32,17.79,17.79,0,0,0-4.09-.46,12.3,12.3,0,0,0-4.4.67,9.76,9.76,0,0,0-5.81,5.41A11.29,11.29,0,0,0,44,57.31a13,13,0,0,0,.55,3.85,9,9,0,0,0,1.64,3.12,7.47,7.47,0,0,0,2.76,2.09,9.41,9.41,0,0,0,3.89.75,7.8,7.8,0,0,0,4-1.11,6.24,6.24,0,0,0,2.69-3.14A5,5,0,0,0,60,65.27a3.16,3.16,0,0,0,1.3,1.3,4.07,4.07,0,0,0,1.82.44,9.75,9.75,0,0,0,2.06-.18V63.71A2.8,2.8,0,0,1,64,63.63m-5.13-6.69a7.89,7.89,0,0,1-1.36,4.48,4.35,4.35,0,0,1-3.75,1.76,4.91,4.91,0,0,1-4-1.6,6.5,6.5,0,0,1-1.32-4.27,8.6,8.6,0,0,1,.53-2.86,6.78,6.78,0,0,1,1.32-2.19,5.51,5.51,0,0,1,2-1.4,6.32,6.32,0,0,1,2.55-.49,11.89,11.89,0,0,1,2,.18,8.87,8.87,0,0,1,2.09.63v5.76Z" transform="translate(-9.18 -6.59)"/><path class="a" d="M85,49.27a6.71,6.71,0,0,0-2.41-1.76,8.47,8.47,0,0,0-3.44-.64,11.08,11.08,0,0,0-2,.18,9.19,9.19,0,0,0-1.91.57,5.88,5.88,0,0,0-1.64,1,4.37,4.37,0,0,0-1.13,1.58A3.48,3.48,0,0,0,72,48.09a2.74,2.74,0,0,0-1.44-1,5.64,5.64,0,0,0-2-.2,16.06,16.06,0,0,0-2.15.26v3a4.42,4.42,0,0,1,1.15.06,1,1,0,0,1,.63.41,1.8,1.8,0,0,1,.24.85c0,0.36,0,.83,0,1.4V66.75h4.45V55.65a5.8,5.8,0,0,1,.39-2.15,5,5,0,0,1,1.05-1.66,4.72,4.72,0,0,1,1.56-1.08,4.85,4.85,0,0,1,1.94-.38,4.7,4.7,0,0,1,3.3,1.32,4.64,4.64,0,0,1,1.28,3.58V66.75h4.46V55.28a11.5,11.5,0,0,0-.47-3.36A7.33,7.33,0,0,0,85,49.27" transform="translate(-9.18 -6.59)"/><path class="a" d="M104.77,56.58a9,9,0,0,0-2.57-.89c-1-.19-2-0.35-3-0.49a16.53,16.53,0,0,1-3.46-.71,1.67,1.67,0,0,1-1.2-1.64,1.81,1.81,0,0,1,.28-1.15,2.56,2.56,0,0,1,.91-0.85A4.83,4.83,0,0,1,97,50.32a6,6,0,0,1,1.5-.18,10.26,10.26,0,0,1,1.56.12,4.92,4.92,0,0,1,1.42.43,3,3,0,0,1,1,.79,1.84,1.84,0,0,1,.41,1.21h3.89a4.66,4.66,0,0,0-.61-2.55,5.62,5.62,0,0,0-1.81-1.84,8.49,8.49,0,0,0-2.67-1.11,13.67,13.67,0,0,0-3.22-.37,12.83,12.83,0,0,0-3.08.37,8.25,8.25,0,0,0-2.66,1.13A6.22,6.22,0,0,0,91,50.22a5,5,0,0,0-.71,2.71,4.24,4.24,0,0,0,.83,2.64,5.36,5.36,0,0,0,2,1.52,11.16,11.16,0,0,0,2.75.79c1,0.16,2,.31,3,0.45a11.61,11.61,0,0,1,3.16.77A1.87,1.87,0,0,1,103.25,61a2.67,2.67,0,0,1-.47,1.48,2.84,2.84,0,0,1-1.09.91,5.54,5.54,0,0,1-1.48.47,9.35,9.35,0,0,1-1.62.14A7,7,0,0,1,97,63.78a5.2,5.2,0,0,1-1.39-.55,3.36,3.36,0,0,1-1-.91A2.33,2.33,0,0,1,94.13,61H89.8a5.93,5.93,0,0,0,.93,3,6.33,6.33,0,0,0,2,1.93,8.37,8.37,0,0,0,2.8,1,17.44,17.44,0,0,0,3.18.28,13.65,13.65,0,0,0,3.16-.36,8.62,8.62,0,0,0,2.71-1.12,6,6,0,0,0,1.91-1.92,5.22,5.22,0,0,0,.73-2.8,5,5,0,0,0-.69-2.8,5,5,0,0,0-1.8-1.66" transform="translate(-9.18 -6.59)"/><path class="a" d="M154.2,49.27a6.75,6.75,0,0,0-2.41-1.76,8.47,8.47,0,0,0-3.44-.64,11,11,0,0,0-2,.18,9.15,9.15,0,0,0-1.91.57,5.9,5.9,0,0,0-1.64,1,4.51,4.51,0,0,0-1.14,1.58,3.48,3.48,0,0,0-.57-2.13,2.78,2.78,0,0,0-1.44-1,5.63,5.63,0,0,0-2-.2,16.14,16.14,0,0,0-2.15.26v3a4.33,4.33,0,0,1,1.16.06,1,1,0,0,1,.63.41,1.75,1.75,0,0,1,.24.85c0,0.36,0,.83,0,1.4V66.75h4.46V55.65a5.81,5.81,0,0,1,.38-2.15,4.94,4.94,0,0,1,1.05-1.66,4.71,4.71,0,0,1,1.56-1.08,4.85,4.85,0,0,1,1.94-.38,4.7,4.7,0,0,1,3.3,1.32,4.64,4.64,0,0,1,1.28,3.58V66.75h4.45V55.28a11.48,11.48,0,0,0-.47-3.36,7.26,7.26,0,0,0-1.42-2.66" transform="translate(-9.18 -6.59)"/><path class="a" d="M162,38.59a2.93,2.93,0,0,0-1.84.65,2.31,2.31,0,0,0-.83,1.94,2.4,2.4,0,0,0,.85,2,2.77,2.77,0,0,0,1.87.63,3,3,0,0,0,1.78-.69,2.74,2.74,0,0,0,0-3.89,2.88,2.88,0,0,0-1.83-.65" transform="translate(-9.18 -6.59)"/><rect class="a" x="150.58" y="40.63" width="4.42" height="19.53"/><path class="a" d="M184.75,49.31a9.68,9.68,0,0,0-3.36-1.84,12.81,12.81,0,0,0-3.93-.6,11.46,11.46,0,0,0-3.73.62,9.6,9.6,0,0,0-3.24,1.89,9.37,9.37,0,0,0-2.29,3.14,10.36,10.36,0,0,0-.87,4.4,10.52,10.52,0,0,0,.89,4.48,9.4,9.4,0,0,0,5.61,5.1,11.77,11.77,0,0,0,7.58,0,9.85,9.85,0,0,0,3.3-1.9,9.48,9.48,0,0,0,2.35-3.2,11.74,11.74,0,0,0,0-8.93,8.82,8.82,0,0,0-2.33-3.14M183,59.66a6.13,6.13,0,0,1-1.32,2,5.36,5.36,0,0,1-1.87,1.2,6,6,0,0,1-2.14.41,6.52,6.52,0,0,1-2.21-.39,5.52,5.52,0,0,1-1.92-1.18,5.59,5.59,0,0,1-1.35-2,7,7,0,0,1-.51-2.78,6.91,6.91,0,0,1,.49-2.69,5.39,5.39,0,0,1,1.3-1.9,5.52,5.52,0,0,1,1.84-1.14,6.74,6.74,0,0,1,2.13-.42,6.23,6.23,0,0,1,2.23.32,5.36,5.36,0,0,1,1.94,1.14A5.67,5.67,0,0,1,183,54.15a6.7,6.7,0,0,1,.53,2.76,6.94,6.94,0,0,1-.5,2.76" transform="translate(-9.18 -6.59)"/><polygon class="a" points="0 35.97 0 31.8 21.07 31.8 21.07 35.97 12.85 35.97 12.85 60.16 8.23 60.16 8.23 35.97 0 35.97"/><path class="a" d="M110.61,57.23V38.39h4.7V57.11c0,3.73,2.79,5.79,6.4,5.79S128,60.84,128,57.11V38.39h4.66V57.23c0,6.32-4.94,9.89-11,9.89s-11.1-3.57-11.1-9.89" transform="translate(-9.18 -6.59)"/><path class="a" d="M209.85,62.17V59.1h0V55.28a11.68,11.68,0,0,0-.46-3.36A7.41,7.41,0,0,0,208,49.27a6.74,6.74,0,0,0-2.41-1.76,8.52,8.52,0,0,0-3.45-.64,11,11,0,0,0-2,.18,9.19,9.19,0,0,0-1.91.57,5.85,5.85,0,0,0-1.64,1,4.49,4.49,0,0,0-1.13,1.58,3.47,3.47,0,0,0-.57-2.13,2.76,2.76,0,0,0-1.44-1,5.67,5.67,0,0,0-2-.2,16,16,0,0,0-2.14.26v3a4.3,4.3,0,0,1,1.15.06,1,1,0,0,1,.63.41,1.77,1.77,0,0,1,.24.85c0,0.36,0,.83,0,1.4V66.75h4.45V55.65a5.83,5.83,0,0,1,.38-2.15,4.93,4.93,0,0,1,1.06-1.66,4.67,4.67,0,0,1,1.56-1.08,4.85,4.85,0,0,1,1.95-.38,4.47,4.47,0,0,1,4.58,4.9v7.05c0,4.75,3,5.24,6.77,4.5V64c-1.94.21-2.31-.33-2.31-1.82" transform="translate(-9.18 -6.59)"/><path class="a" d="M221.37,6.59a20.44,20.44,0,0,0-17.73,10.25c-1.34,2.44-1.47,4.57-.47,6.31,1.17,2,3.8,2.36,5.26,2.36H211l-0.95,3a5.65,5.65,0,0,0,.59,5,4.92,4.92,0,0,0,4.12,2,8.68,8.68,0,0,0,3.65-.74,6.63,6.63,0,0,1-.77-1.46,7.35,7.35,0,0,1-.37-1.5,6.61,6.61,0,0,1-2.37.4,1.9,1.9,0,0,1-1.5-.67,2.32,2.32,0,0,1-.19-2l1.29-4h4l1.06-3.32h-4l1.77-5.43h-3.53L212.1,22.2h-3.67a2.36,2.36,0,0,1-2.25-.91c-0.4-.69,0-2.09.93-3.74l0-.07a17.15,17.15,0,1,1-2.62,12.78l-3.26.66a20.47,20.47,0,1,0,20.1-24.33" transform="translate(-9.18 -6.59)"/><path class="a" d="M234.4,32.59a4.62,4.62,0,0,1-2.52-.57,1.7,1.7,0,0,1-.68-1,0.17,0.17,0,0,1,0,0,1.92,1.92,0,0,1,.1-0.94l2.53-7.8h-3.52l-2.16,6.75v0a4.76,4.76,0,0,1-4.06,3.16,1.6,1.6,0,0,1-1.26-.56,1.65,1.65,0,0,1-.16-1.57l2.53-7.8h-3.52l-2.16,6.74a5.18,5.18,0,0,0,.53,4.66,4.66,4.66,0,0,0,3.9,1.85,7.73,7.73,0,0,0,4.8-1.85,3.55,3.55,0,0,0,1.89,1.47,7.3,7.3,0,0,0,2.66.38,4,4,0,0,0,.95-0.13c0.07-.11.15-0.22,0.21-0.33s0.25-.43.37-0.65,0.23-.43.34-0.65l0.3-.68,0.19-.49a11.24,11.24,0,0,1-1.25.07" transform="translate(-9.18 -6.59)"/><path class="a" d="M214.37,64.47a2.62,2.62,0,1,1,5.23,0,2.62,2.62,0,1,1-5.23,0m4.77,0a2.16,2.16,0,1,0-4.31,0,2.16,2.16,0,1,0,4.31,0m-1,1.2v0.06h-0.41l-0.65-.89h-0.55v0.89h-0.39V63.22h1a0.82,0.82,0,0,1,.89.83,0.74,0.74,0,0,1-.59.76Zm-1.62-1.15h0.61a0.49,0.49,0,0,0,.53-0.49,0.5,0.5,0,0,0-.53-0.49h-0.61v1Z" transform="translate(-9.18 -6.59)"/><path class="a" d="M119.14,105.26c1.17-.35,2.46-1.64,3.79-0.82a2.92,2.92,0,0,1,1.13,2.89,1.64,1.64,0,0,1-.86.9,60.5,60.5,0,0,1-10.36,4.34,2,2,0,0,1-2.11-.74,2.55,2.55,0,0,1-.51-1.52,1.82,1.82,0,0,1,.94-1.8c1.13-.51,2.38-0.9,3.56-1.33V98.34h-2.35a1.82,1.82,0,0,1-1.64-.82,3.45,3.45,0,0,1,.16-3,1.9,1.9,0,0,1,1.56-.63h2.23V87H112.3a1.9,1.9,0,0,1-1.56-.82,3,3,0,0,1,.08-3c0.47-.62,1.21-0.66,2.46-0.66h7.86A2.1,2.1,0,0,1,123,83.56a2.72,2.72,0,0,1-.12,2.77,1.85,1.85,0,0,1-1.6.7h-2.15v6.84h2.3A1.52,1.52,0,0,1,123,95.09a3.73,3.73,0,0,1-.12,2.27,1.59,1.59,0,0,1-1.6,1h-2.15v6.92Zm24.66-1.49a1.91,1.91,0,0,1-.94,1.8,2.31,2.31,0,0,1,1.56,2.54c-0.55,1.17-2,2-3,2.74,1.09,1,2.38,1.72,3.52,2.66a1.67,1.67,0,0,1,.23,1.8,2.67,2.67,0,0,1-1.29,1.72,2.13,2.13,0,0,1-1.76-.32,35.77,35.77,0,0,1-9.3-9.34l-2.07,1.45v2.93c0,0.43.27,0.55,0.7,0.43,1.49-.39,3.29-1.21,4-0.43a2.23,2.23,0,0,1,.63,2.23c-0.24.86-1.64,1.29-3.44,1.76-1.6.43-3.36,1.05-5.12,0.51a2.45,2.45,0,0,1-1.21-2.5v-2.15c-1.37.67-2.26,1.37-3.4,0.67a2.21,2.21,0,0,1-1-2.35,3.11,3.11,0,0,1,1.8-1.72c1.57-.9,2.7-1.49,4-2.23l-0.86-.08a1.84,1.84,0,0,1-1.92-1,2.93,2.93,0,0,1-.31-1.56v-5a1.87,1.87,0,0,1,.59-1.13,2.12,2.12,0,0,1,1.37-.55h15.16a2.21,2.21,0,0,1,1.8,1.21,5.62,5.62,0,0,1,.19,1.41v4.5Zm0-12a1.5,1.5,0,0,1,1.45,1.17,2.49,2.49,0,0,1-.27,2.11,1.76,1.76,0,0,1-1.45.51H124.88a1.57,1.57,0,0,1-1.6-.94,2.25,2.25,0,0,1,.31-2.34,2,2,0,0,1,1.41-.51h18.76Zm0.35-3.36a2.15,2.15,0,0,1-1.13,2,3.62,3.62,0,0,1-1.53.43h-15a2.6,2.6,0,0,1-1.64-.78,2.38,2.38,0,0,1-.47-1.6V84.85a2.17,2.17,0,0,1,2.35-2.42h15.28a2.36,2.36,0,0,1,1.64.7,2.32,2.32,0,0,1,.55,1.64v3.64Zm-14.07-1V86h-1.09a0.5,0.5,0,0,0-.47.43V87a0.43,0.43,0,0,0,.51.39H130Zm9.38,13.25a0.52,0.52,0,0,0-.47-0.62h-9.38a0.49,0.49,0,0,0-.54.55v1.06a0.5,0.5,0,0,0,.51.55h9.38a0.48,0.48,0,0,0,.51-0.55v-1ZM134.93,86H133.4v1.41h1.52V86Zm1.41,19.86a27.88,27.88,0,0,0,2.07,2.26,6.18,6.18,0,0,0,1.41-.9c0.71-.71.9-1.17,1.56-1.29Zm3-18.45a0.43,0.43,0,0,0,.51-0.39l0-.59a0.43,0.43,0,0,0-.43-0.43h-1.1v1.41h1.06Z" transform="translate(-9.18 -6.59)"/><path class="a" d="M172,108.46c0,3.13-2.85,6.45-5.78,7.78-0.9.39-2.11,1-3,.2a2.83,2.83,0,0,1-1-1.84,1.44,1.44,0,0,1,.47-1.25,31.09,31.09,0,0,0,3.16-1.76,7.08,7.08,0,0,0,1.41-1.64h-2.54a2.45,2.45,0,0,1-2-.78,2.15,2.15,0,0,1-1.25,1.09l0,4.85a1.71,1.71,0,0,1-1.06,1.68,2.48,2.48,0,0,1-2.27-.23,1.77,1.77,0,0,1-.74-1.37V111.9l-5.55,1.92a2.31,2.31,0,0,1-1.68-.12,2.84,2.84,0,0,1-.78-2.5c0.16-.86,1.17-1.13,1.84-1.33V86.65a2,2,0,0,1-1.45-1.09,2.85,2.85,0,0,1,.43-2.89,2.43,2.43,0,0,1,1.64-.43l9.58,0a1.7,1.7,0,0,1,1.72,1.25,2.92,2.92,0,0,1-.31,2.54,1.82,1.82,0,0,1-1.37.54l0,19.82,0.78,0.47v-4.61a1.79,1.79,0,0,1,1-1.29,2.71,2.71,0,0,1,2.35.2,2.11,2.11,0,0,1,.63,1.25l0,3c0,0.32.12,0.47,0.35,0.47h1.33v-3.75a2,2,0,0,1,1.17-1.72,2.55,2.55,0,0,1,2.5.47,1.58,1.58,0,0,1,.43,1.06v6.53ZM157.35,86.57h-2.11l0,4.1h2.15v-4.1Zm-2.11,8.21v4.49h2.11V94.78h-2.11Zm2.11,8.56h-2.07l0,5,2-.63v-4.42Zm28.07-5.16a1.68,1.68,0,0,1-1.06,1.84,1.54,1.54,0,0,1-1.64-.16,2.11,2.11,0,0,1-.67-1.17l-6.84,1.13a1.9,1.9,0,0,1-.82-0.31,1.83,1.83,0,0,1-2.23.94,1.51,1.51,0,0,1-.78-0.7l-0.47-1-6.37.94a2,2,0,0,1-1.68-1.25,2.41,2.41,0,0,1,.08-1.48l2.58-3.79-2.62-3.28a2.22,2.22,0,0,1,0-2.15l3.95-6.1a1.65,1.65,0,0,1,1.76-.39,2.45,2.45,0,0,1,1.45,1.13,1.87,1.87,0,0,1,0,1.45l-3,4.77a1.77,1.77,0,0,0,.63,1.13L169.9,86a1.75,1.75,0,0,1,1.68-.43,2.38,2.38,0,0,1,1.72,1.8l-0.08.82a53,53,0,0,1-5,7.27v0.2l1.37-.2L169.4,95a1.26,1.26,0,0,1,.19-1,2.16,2.16,0,0,1,1.6-.94,1.42,1.42,0,0,1,1.25.63l1.21,2.35a22.08,22.08,0,0,0,2-2.58l-2.27-3.36a2.48,2.48,0,0,1,0-1.76l3.44-6a1.69,1.69,0,0,1,1.29-.78,2.89,2.89,0,0,1,2,1.25,1.5,1.5,0,0,1,.16,1.41c-0.86,1.56-1.84,3.09-2.81,4.61a2,2,0,0,0,.62,1.13l2.42-4a1.88,1.88,0,0,1,1.13-.59,2.41,2.41,0,0,1,2.07,1.17,1.92,1.92,0,0,1,.16,1.6,64.26,64.26,0,0,1-5.32,7.54l0.16,0.16,1.88-.43a1.78,1.78,0,0,1-.23-1.52,1.85,1.85,0,0,1,3.28-.12ZM184,107.8a2.68,2.68,0,0,1-2.31,2.5h-3.87v4.89a2.11,2.11,0,0,1-1.09,1.29,2.29,2.29,0,0,1-1.76,0,1.84,1.84,0,0,1-1.21-1.52V102a1.89,1.89,0,0,1,1-1.37,2.45,2.45,0,0,1,2.89.9l0.19,0.74v4.1h1.87l0.24-.27V102a1.67,1.67,0,0,1,1.09-1.13,2.4,2.4,0,0,1,2.11.19,1.9,1.9,0,0,1,.82,1.41v5.31Z" transform="translate(-9.18 -6.59)"/></svg>